<svg width="0" height="0" class="hidden">
  <symbol fill="none" xmlns="http://www.w3.org/2000/svg" viewBox="0 0 24 24" id="arrow-down">
    <path d="M11.9995 16.8006C11.2995 16.8006 10.5995 16.5306 10.0695 16.0006L3.54953 9.48062C3.25953 9.19062 3.25953 8.71062 3.54953 8.42063C3.83953 8.13063 4.31953 8.13063 4.60953 8.42063L11.1295 14.9406C11.6095 15.4206 12.3895 15.4206 12.8695 14.9406L19.3895 8.42063C19.6795 8.13063 20.1595 8.13063 20.4495 8.42063C20.7395 8.71062 20.7395 9.19062 20.4495 9.48062L13.9295 16.0006C13.3995 16.5306 12.6995 16.8006 11.9995 16.8006Z" fill="#292D32"></path>
  </symbol>
  <symbol fill="none" xmlns="http://www.w3.org/2000/svg" viewBox="0 0 24 24" id="search">
    <path d="M11.5 21.75C5.85 21.75 1.25 17.15 1.25 11.5C1.25 5.85 5.85 1.25 11.5 1.25C17.15 1.25 21.75 5.85 21.75 11.5C21.75 17.15 17.15 21.75 11.5 21.75ZM11.5 2.75C6.67 2.75 2.75 6.68 2.75 11.5C2.75 16.32 6.67 20.25 11.5 20.25C16.33 20.25 20.25 16.32 20.25 11.5C20.25 6.68 16.33 2.75 11.5 2.75Z" fill="#396F4B"></path>
    <path d="M21.9995 22.7514C21.8095 22.7514 21.6195 22.6814 21.4695 22.5314L19.4695 20.5314C19.1795 20.2414 19.1795 19.7614 19.4695 19.4714C19.7595 19.1814 20.2395 19.1814 20.5295 19.4714L22.5295 21.4714C22.8195 21.7614 22.8195 22.2414 22.5295 22.5314C22.3795 22.6814 22.1895 22.7514 21.9995 22.7514Z" fill="#396F4B"></path>
  </symbol>
  <symbol fill="none" xmlns="http://www.w3.org/2000/svg" viewBox="0 0 24 24" id="bag-happy">
    <path d="M12 18.5C9.66 18.5 7.75 16.59 7.75 14.25C7.75 13.84 8.09 13.5 8.5 13.5C8.91 13.5 9.25 13.84 9.25 14.25C9.25 15.77 10.48 17 12 17C13.52 17 14.75 15.77 14.75 14.25C14.75 13.84 15.09 13.5 15.5 13.5C15.91 13.5 16.25 13.84 16.25 14.25C16.25 16.59 14.34 18.5 12 18.5Z" fill="#396F4B"></path>
    <path d="M5.19086 6.38141C5.00086 6.38141 4.80086 6.30141 4.66086 6.16141C4.37086 5.87141 4.37086 5.39141 4.66086 5.10141L8.29086 1.47141C8.58086 1.18141 9.06086 1.18141 9.35086 1.47141C9.64086 1.76141 9.64086 2.24141 9.35086 2.53141L5.72086 6.16141C5.57086 6.30141 5.38086 6.38141 5.19086 6.38141Z" fill="#396F4B"></path>
    <path d="M18.8091 6.38141C18.6191 6.38141 18.4291 6.31141 18.2791 6.16141L14.6491 2.53141C14.3591 2.24141 14.3591 1.76141 14.6491 1.47141C14.9391 1.18141 15.4191 1.18141 15.7091 1.47141L19.3391 5.10141C19.6291 5.39141 19.6291 5.87141 19.3391 6.16141C19.1991 6.30141 18.9991 6.38141 18.8091 6.38141Z" fill="#396F4B"></path>
    <path d="M20.21 10.6016C20.14 10.6016 20.07 10.6016 20 10.6016H19.77H4C3.3 10.6116 2.5 10.6116 1.92 10.0316C1.46 9.58156 1.25 8.88156 1.25 7.85156C1.25 5.10156 3.26 5.10156 4.22 5.10156H19.78C20.74 5.10156 22.75 5.10156 22.75 7.85156C22.75 8.89156 22.54 9.58156 22.08 10.0316C21.56 10.5516 20.86 10.6016 20.21 10.6016ZM4.22 9.10156H20.01C20.46 9.11156 20.88 9.11156 21.02 8.97156C21.09 8.90156 21.24 8.66156 21.24 7.85156C21.24 6.72156 20.96 6.60156 19.77 6.60156H4.22C3.03 6.60156 2.75 6.72156 2.75 7.85156C2.75 8.66156 2.91 8.90156 2.97 8.97156C3.11 9.10156 3.54 9.10156 3.98 9.10156H4.22Z" fill="#396F4B"></path>
    <path d="M14.8907 22.7507H8.86073C5.28073 22.7507 4.48073 20.6207 4.17073 18.7707L2.76073 10.1207C2.69073 9.71073 2.97073 9.33073 3.38073 9.26073C3.78073 9.19073 4.17073 9.47073 4.24073 9.88073L5.65073 18.5207C5.94073 20.2907 6.54073 21.2507 8.86073 21.2507H14.8907C17.4607 21.2507 17.7507 20.3507 18.0807 18.6107L19.7607 9.86073C19.8407 9.45073 20.2307 9.18073 20.6407 9.27073C21.0507 9.35073 21.3107 9.74073 21.2307 10.1507L19.5507 18.9007C19.1607 20.9307 18.5107 22.7507 14.8907 22.7507Z" fill="#396F4B"></path>
  </symbol>
  <symbol fill="none" xmlns="http://www.w3.org/2000/svg" viewBox="0 0 24 24" id="user-frame">
    <path d="M12.1586 11.62C12.1286 11.62 12.1086 11.62 12.0786 11.62C12.0286 11.61 11.9586 11.61 11.8986 11.62C8.99859 11.53 6.80859 9.25 6.80859 6.44C6.80859 3.58 9.13859 1.25 11.9986 1.25C14.8586 1.25 17.1886 3.58 17.1886 6.44C17.1786 9.25 14.9786 11.53 12.1886 11.62C12.1786 11.62 12.1686 11.62 12.1586 11.62ZM11.9986 2.75C9.96859 2.75 8.30859 4.41 8.30859 6.44C8.30859 8.44 9.86859 10.05 11.8586 10.12C11.9086 10.11 12.0486 10.11 12.1786 10.12C14.1386 10.03 15.6786 8.42 15.6886 6.44C15.6886 4.41 14.0286 2.75 11.9986 2.75Z" fill="#396F4B"></path>
    <path d="M12.1716 22.55C10.2116 22.55 8.24156 22.05 6.75156 21.05C5.36156 20.13 4.60156 18.87 4.60156 17.5C4.60156 16.13 5.36156 14.86 6.75156 13.93C9.75156 11.94 14.6116 11.94 17.5916 13.93C18.9716 14.85 19.7416 16.11 19.7416 17.48C19.7416 18.85 18.9816 20.12 17.5916 21.05C16.0916 22.05 14.1316 22.55 12.1716 22.55ZM7.58156 15.19C6.62156 15.83 6.10156 16.65 6.10156 17.51C6.10156 18.36 6.63156 19.18 7.58156 19.81C10.0716 21.48 14.2716 21.48 16.7616 19.81C17.7216 19.17 18.2416 18.35 18.2416 17.49C18.2416 16.64 17.7116 15.82 16.7616 15.19C14.2716 13.53 10.0716 13.53 7.58156 15.19Z" fill="#396F4B"></path>
  </symbol>
    <symbol fill="none" xmlns="http://www.w3.org/2000/svg" viewBox="0 0 100% 100%" id="menu">
    <path d="M21 7.75H3C2.59 7.75 2.25 7.41 2.25 7C2.25 6.59 2.59 6.25 3 6.25H21C21.41 6.25 21.75 6.59 21.75 7C21.75 7.41 21.41 7.75 21 7.75Z" fill="#396F4B"></path>
    <path d="M21 12.75H3C2.59 12.75 2.25 12.41 2.25 12C2.25 11.59 2.59 11.25 3 11.25H21C21.41 11.25 21.75 11.59 21.75 12C21.75 12.41 21.41 12.75 21 12.75Z" fill="#396F4B"></path>
    <path d="M21 17.75H3C2.59 17.75 2.25 17.41 2.25 17C2.25 16.59 2.59 16.25 3 16.25H21C21.41 16.25 21.75 16.59 21.75 17C21.75 17.41 21.41 17.75 21 17.75Z" fill="#396F4B"></path>
  </symbol>
  <symbol fill="none" xmlns="http://www.w3.org/2000/svg" viewBox="0 0 24 24" id="arrow-left">
    <path d="M15.0013 20.6695C14.8113 20.6695 14.6213 20.5995 14.4713 20.4495L7.95125 13.9295C6.89125 12.8695 6.89125 11.1295 7.95125 10.0695L14.4713 3.54953C14.7613 3.25953 15.2413 3.25953 15.5312 3.54953C15.8212 3.83953 15.8212 4.31953 15.5312 4.60953L9.01125 11.1295C8.53125 11.6095 8.53125 12.3895 9.01125 12.8695L15.5312 19.3895C15.8212 19.6795 15.8212 20.1595 15.5312 20.4495C15.3813 20.5895 15.1912 20.6695 15.0013 20.6695Z" fill="#FFFFFF"></path>
  </symbol>
  <symbol fill="none" xmlns="http://www.w3.org/2000/svg" viewBox="0 0 24 24" id="arrow-left-green">
    <path d="M15.0013 20.6695C14.8113 20.6695 14.6213 20.5995 14.4713 20.4495L7.95125 13.9295C6.89125 12.8695 6.89125 11.1295 7.95125 10.0695L14.4713 3.54953C14.7613 3.25953 15.2413 3.25953 15.5312 3.54953C15.8212 3.83953 15.8212 4.31953 15.5312 4.60953L9.01125 11.1295C8.53125 11.6095 8.53125 12.3895 9.01125 12.8695L15.5312 19.3895C15.8212 19.6795 15.8212 20.1595 15.5312 20.4495C15.3813 20.5895 15.1912 20.6695 15.0013 20.6695Z" fill="#417f56"></path>
  </symbol>
  <symbol fill="none" xmlns="http://www.w3.org/2000/svg" viewBox="0 0 24 24" id="arrow-right">
    <path d="M8.91156 20.6695C8.72156 20.6695 8.53156 20.5995 8.38156 20.4495C8.09156 20.1595 8.09156 19.6795 8.38156 19.3895L14.9016 12.8695C15.3816 12.3895 15.3816 11.6095 14.9016 11.1295L8.38156 4.60953C8.09156 4.31953 8.09156 3.83953 8.38156 3.54953C8.67156 3.25953 9.15156 3.25953 9.44156 3.54953L15.9616 10.0695C16.4716 10.5795 16.7616 11.2695 16.7616 11.9995C16.7616 12.7295 16.4816 13.4195 15.9616 13.9295L9.44156 20.4495C9.29156 20.5895 9.10156 20.6695 8.91156 20.6695Z" fill="#FFFFFF"></path>
  </symbol>
    <symbol fill="none" xmlns="http://www.w3.org/2000/svg" viewBox="0 0 24 24" id="home-wifi">
    <path d="M17.5998 22.5599H6.39983C4.57983 22.5599 2.91983 21.1598 2.61983 19.3598L1.28984 11.3999C1.07984 10.1599 1.67985 8.56987 2.66985 7.77987L9.59984 2.22982C10.9398 1.14982 13.0498 1.15983 14.3998 2.23983L21.3298 7.77987C22.3098 8.56987 22.9098 10.1599 22.7098 11.3999L21.3798 19.3598C21.0798 21.1298 19.3898 22.5599 17.5998 22.5599ZM11.9898 2.93978C11.4598 2.93978 10.9298 3.09987 10.5398 3.40987L3.60982 8.9598C3.03982 9.4198 2.64982 10.4399 2.76982 11.1599L4.09984 19.1198C4.27984 20.1698 5.32983 21.0599 6.39983 21.0599H17.5998C18.6698 21.0599 19.7198 20.1698 19.8998 19.1098L21.2298 11.1499C21.3498 10.4299 20.9499 9.39979 20.3899 8.94979L13.4598 3.40987C13.0598 3.09987 12.5298 2.93978 11.9898 2.93978Z" fill="#FFFFFF"></path>
    <path d="M14.1205 15.13C13.9305 15.13 13.7505 15.06 13.6005 14.92C12.6305 13.99 11.3706 13.99 10.3906 14.92C10.0906 15.21 9.62052 15.2 9.33052 14.9C9.04052 14.6 9.05054 14.1299 9.35054 13.8399C10.9005 12.3499 13.0705 12.3499 14.6305 13.8399C14.9305 14.1299 14.9405 14.6 14.6505 14.9C14.5205 15.05 14.3205 15.13 14.1205 15.13Z" fill="#FFFFFF"></path>
    <path d="M16.2404 13.01C16.0504 13.01 15.8604 12.9401 15.7204 12.8001C15.2504 12.3401 14.7204 11.97 14.1604 11.7C12.7604 11.03 11.2304 11.03 9.84037 11.7C9.28037 11.97 8.76037 12.3401 8.28037 12.8001C7.99037 13.0901 7.51037 13.0901 7.22037 12.7901C6.93037 12.4901 6.94038 12.02 7.23038 11.73C7.82038 11.15 8.48037 10.69 9.19037 10.35C11.0004 9.48001 13.0004 9.48001 14.8004 10.35C15.5104 10.69 16.1704 11.15 16.7604 11.73C17.0604 12.02 17.0604 12.4901 16.7704 12.7901C16.6304 12.9301 16.4404 13.01 16.2404 13.01Z" fill="#FFFFFF"></path>
    <path d="M12.0005 17.5C11.7405 17.5 11.4905 17.4 11.2905 17.21C10.9005 16.82 10.9005 16.1901 11.2905 15.8001C11.6805 15.4101 12.3205 15.4101 12.7105 15.8001C13.1005 16.1901 13.1005 16.82 12.7105 17.21C12.5105 17.4 12.2605 17.5 12.0005 17.5Z" fill="#FFFFFF"></path>
  </symbol>
  <symbol fill="none" xmlns="http://www.w3.org/2000/svg" viewBox="0 0 24 24" id="menu-board">
    <path d="M16.3809 22.7502H3.2409C2.2909 22.7502 1.41091 22.3103 0.840908 21.5403C0.260908 20.7603 0.0909169 19.7802 0.380917 18.8502L4.59091 5.32019C4.97091 4.06019 6.13092 3.2002 7.45092 3.2002H19.7509C20.9609 3.2002 22.0509 3.92028 22.5109 5.04028C22.7609 5.62028 22.8109 6.2803 22.6609 6.9303L19.2909 20.4602C18.9709 21.8102 17.7709 22.7502 16.3809 22.7502ZM7.4609 4.71021C6.8109 4.71021 6.22091 5.14026 6.03091 5.77026L1.82092 19.3003C1.68092 19.7703 1.76091 20.2603 2.06091 20.6603C2.34091 21.0403 2.78091 21.2603 3.25091 21.2603H16.3909C17.0809 21.2603 17.6809 20.7902 17.8409 20.1202L21.2109 6.5802C21.2909 6.2502 21.2709 5.92025 21.1409 5.63025C20.9009 5.06025 20.3709 4.7002 19.7609 4.7002H7.4609V4.71021Z" fill="#FFFFFF"></path>
    <path d="M20.78 22.75H16C15.59 22.75 15.25 22.41 15.25 22C15.25 21.59 15.59 21.25 16 21.25H20.78C21.19 21.25 21.57 21.08 21.85 20.78C22.13 20.48 22.27 20.08 22.24 19.67L21.25 6.05002C21.22 5.64002 21.53 5.27997 21.94 5.24997C22.35 5.22997 22.71 5.52991 22.74 5.93991L23.73 19.56C23.79 20.38 23.5 21.2 22.94 21.8C22.39 22.41 21.6 22.75 20.78 22.75Z" fill="#FFFFFF"></path>
    <path d="M9.67977 7.12971C9.61977 7.12971 9.55977 7.11969 9.49977 7.10969C9.09977 7.00969 8.84979 6.60966 8.94979 6.19966L9.98976 1.87971C10.0898 1.47971 10.4898 1.22966 10.8998 1.32966C11.2998 1.42966 11.5498 1.8297 11.4498 2.2397L10.4098 6.55977C10.3298 6.89977 10.0198 7.12971 9.67977 7.12971Z" fill="#FFFFFF"></path>
    <path d="M16.3795 7.13974C16.3295 7.13974 16.2694 7.13972 16.2194 7.11972C15.8194 7.02972 15.5595 6.62971 15.6395 6.22971L16.5794 1.88974C16.6694 1.47974 17.0694 1.22979 17.4694 1.30979C17.8694 1.38979 18.1294 1.79968 18.0494 2.19968L17.1094 6.53977C17.0394 6.89977 16.7295 7.13974 16.3795 7.13974Z" fill="#FFFFFF"></path>
    <path d="M15.6992 12.75H7.69922C7.28922 12.75 6.94922 12.41 6.94922 12C6.94922 11.59 7.28922 11.25 7.69922 11.25H15.6992C16.1092 11.25 16.4492 11.59 16.4492 12C16.4492 12.41 16.1092 12.75 15.6992 12.75Z" fill="#FFFFFF"></path>
    <path d="M14.6992 16.75H6.69922C6.28922 16.75 5.94922 16.41 5.94922 16C5.94922 15.59 6.28922 15.25 6.69922 15.25H14.6992C15.1092 15.25 15.4492 15.59 15.4492 16C15.4492 16.41 15.1092 16.75 14.6992 16.75Z" fill="#FFFFFF"></path>
  </symbol>
  <symbol fill="none" xmlns="http://www.w3.org/2000/svg" viewBox="0 0 24 24" id="user">
    <path d="M12 12.75C8.83 12.75 6.25 10.17 6.25 7C6.25 3.83 8.83 1.25 12 1.25C15.17 1.25 17.75 3.83 17.75 7C17.75 10.17 15.17 12.75 12 12.75ZM12 2.75C9.66 2.75 7.75 4.66 7.75 7C7.75 9.34 9.66 11.25 12 11.25C14.34 11.25 16.25 9.34 16.25 7C16.25 4.66 14.34 2.75 12 2.75Z" fill="#FFFFFF"></path>
    <path d="M20.5901 22.75C20.1801 22.75 19.8401 22.41 19.8401 22C19.8401 18.55 16.3202 15.75 12.0002 15.75C7.68015 15.75 4.16016 18.55 4.16016 22C4.16016 22.41 3.82016 22.75 3.41016 22.75C3.00016 22.75 2.66016 22.41 2.66016 22C2.66016 17.73 6.85015 14.25 12.0002 14.25C17.1502 14.25 21.3401 17.73 21.3401 22C21.3401 22.41 21.0001 22.75 20.5901 22.75Z" fill="#FFFFFF"></path>
  </symbol>
  <symbol fill="none" xmlns="http://www.w3.org/2000/svg" viewBox="0 0 24 24" id="diagram">
    <path d="M22 22.75H5C2.93 22.75 1.25 21.07 1.25 19V2C1.25 1.59 1.59 1.25 2 1.25C2.41 1.25 2.75 1.59 2.75 2V19C2.75 20.24 3.76 21.25 5 21.25H22C22.41 21.25 22.75 21.59 22.75 22C22.75 22.41 22.41 22.75 22 22.75Z" fill="#FFFFFF"></path>
    <path d="M4.99982 17.7498C4.82982 17.7498 4.64982 17.6898 4.50982 17.5698C4.19982 17.2998 4.15982 16.8298 4.42982 16.5098L9.01982 11.1498C9.51982 10.5698 10.2398 10.2198 10.9998 10.1898C11.7598 10.1698 12.5098 10.4498 13.0498 10.9898L13.9998 11.9398C14.2498 12.1898 14.5798 12.3098 14.9298 12.3098C15.2798 12.2998 15.5998 12.1398 15.8298 11.8698L20.4198 6.50983C20.6898 6.19983 21.1598 6.15981 21.4798 6.42981C21.7898 6.69981 21.8298 7.16981 21.5598 7.48981L16.9698 12.8498C16.4698 13.4298 15.7498 13.7798 14.9898 13.8098C14.2298 13.8298 13.4798 13.5498 12.9398 13.0098L11.9998 12.0598C11.7498 11.8098 11.4198 11.6798 11.0698 11.6898C10.7198 11.6998 10.3998 11.8598 10.1698 12.1298L5.57982 17.4898C5.41982 17.6598 5.20982 17.7498 4.99982 17.7498Z" fill="#FFFFFF"></path>
  </symbol>
    <symbol fill="none" xmlns="http://www.w3.org/2000/svg" viewBox="0 0 24 24" id="location-tick">
    <path d="M12.0016 22.76C10.5216 22.76 9.03164 22.2 7.87164 21.09C4.92164 18.25 1.66164 13.72 2.89164 8.33C4.00164 3.44 8.27164 1.25 12.0016 1.25C12.0016 1.25 12.0016 1.25 12.0116 1.25C15.7416 1.25 20.0116 3.44 21.1216 8.34C22.3416 13.73 19.0816 18.25 16.1316 21.09C14.9716 22.2 13.4816 22.76 12.0016 22.76ZM12.0016 2.75C9.09164 2.75 5.35164 4.3 4.36164 8.66C3.28164 13.37 6.24164 17.43 8.92164 20C10.6516 21.67 13.3616 21.67 15.0916 20C17.7616 17.43 20.7216 13.37 19.6616 8.66C18.6616 4.3 14.9116 2.75 12.0016 2.75Z" fill="#417f56"></path>
    <path d="M10.7514 13.7514C10.5614 13.7514 10.3714 13.6814 10.2214 13.5314L8.72141 12.0314C8.43141 11.7414 8.43141 11.2614 8.72141 10.9714C9.01141 10.6814 9.49141 10.6814 9.78141 10.9714L10.7514 11.9414L14.2214 8.47141C14.5114 8.18141 14.9914 8.18141 15.2814 8.47141C15.5714 8.76141 15.5714 9.24141 15.2814 9.53141L11.2814 13.5314C11.1314 13.6814 10.9414 13.7514 10.7514 13.7514Z" fill="#417f56"></path>
  </symbol>
  <symbol fill="none" xmlns="http://www.w3.org/2000/svg" viewBox="0 0 24 24" id="gallery">
    <path d="M15 22.75H9C3.57 22.75 1.25 20.43 1.25 15V9C1.25 3.57 3.57 1.25 9 1.25H15C20.43 1.25 22.75 3.57 22.75 9V15C22.75 20.43 20.43 22.75 15 22.75ZM9 2.75C4.39 2.75 2.75 4.39 2.75 9V15C2.75 19.61 4.39 21.25 9 21.25H15C19.61 21.25 21.25 19.61 21.25 15V9C21.25 4.39 19.61 2.75 15 2.75H9Z" fill="#ffffff"></path>
    <path d="M9 10.75C7.48 10.75 6.25 9.52 6.25 8C6.25 6.48 7.48 5.25 9 5.25C10.52 5.25 11.75 6.48 11.75 8C11.75 9.52 10.52 10.75 9 10.75ZM9 6.75C8.31 6.75 7.75 7.31 7.75 8C7.75 8.69 8.31 9.25 9 9.25C9.69 9.25 10.25 8.69 10.25 8C10.25 7.31 9.69 6.75 9 6.75Z" fill="#ffffff"></path>
    <path d="M2.67075 19.7001C2.43075 19.7001 2.19075 19.5801 2.05075 19.3701C1.82075 19.0301 1.91075 18.5601 2.26075 18.3301L7.19075 15.0201C8.27075 14.2901 9.76075 14.3801 10.7407 15.2101L11.0707 15.5001C11.5707 15.9301 12.4207 15.9301 12.9107 15.5001L17.0707 11.9301C18.1307 11.0201 19.8007 11.0201 20.8707 11.9301L22.5007 13.3301C22.8107 13.6001 22.8507 14.0701 22.5807 14.3901C22.3107 14.7001 21.8407 14.7401 21.5207 14.4701L19.8907 13.0701C19.3907 12.6401 18.5407 12.6401 18.0407 13.0701L13.8807 16.6401C12.8207 17.5501 11.1507 17.5501 10.0807 16.6401L9.75075 16.3501C9.29075 15.9601 8.53075 15.9201 8.02075 16.2701L3.09075 19.5801C2.96075 19.6601 2.81075 19.7001 2.67075 19.7001Z" fill="#ffffff"></path>
  </symbol>
  <symbol xmlns="http://www.w3.org/2000/svg" xmlns:xlink="http://www.w3.org/1999/xlink" fill-rule="nonzero" viewBox="0,0,256,256" id="linkedin">
    <g fill="#ffffff" fill-rule="nonzero" stroke="none" stroke-width="1" stroke-linecap="butt" stroke-linejoin="miter" stroke-miterlimit="10" stroke-dasharray="" stroke-dashoffset="0" font-family="none" font-weight="none" font-size="none" text-anchor="none">
      <g transform="scale(5.12,5.12)">
        <path d="M8,3.00977c-3.47,0 -5.99023,2.07945 -5.99023,4.93945c0,2.87 2.58023,5.04102 5.99023,5.04102c3.47,0 5.99023,-2.11961 5.99023,-5.09961c-0.16,-2.87 -2.63023,-4.88086 -5.99023,-4.88086zM3,15c-0.55,0 -1,0.45 -1,1v29c0,0.55 0.45,1 1,1h10c0.55,0 1,-0.45 1,-1v-29c0,-0.55 -0.45,-1 -1,-1zM18,15c-0.55,0 -1,0.45 -1,1v29c0,0.55 0.45,1 1,1h9c0.552,0 1,-0.448 1,-1v-15v-0.25v-0.25c0,-2.37 1.82062,-4.30047 4.14063,-4.48047c0.12,-0.02 0.23938,-0.01953 0.35938,-0.01953c0.12,0 0.23938,-0.00047 0.35938,0.01953c2.32,0.18 4.14063,2.11047 4.14063,4.48047v15.5c0,0.552 0.448,1 1,1h9c0.55,0 1,-0.45 1,-1v-17c0,-6.47 -3.47094,-13 -11.21094,-13c-3.52,0 -6.17906,1.36023 -7.78906,2.49023v-1.49023c0,-0.55 -0.45,-1 -1,-1z"></path>
      </g>
    </g>
  </symbol>
  <symbol fill="none" xmlns="http://www.w3.org/2000/svg" viewBox="0 0 22 29" id="map-marker-radius">
    <path d="M11 3.332C13.934 3.332 16.332 5.734 16.332 8.668C16.332 11.465 13.535 16 11 19.199C8.465 15.867 5.668 11.465 5.668 8.668C5.668 5.734 8.066 3.332 11 3.332M11 0.667999C6.602 0.667999 3 4.266 3 8.668C3 14.668 11 23.332 11 23.332C11 23.332 19 14.535 19 8.668C19 4.266 15.398 0.667999 11 0.667999M11 6C10.2931 6.00237 9.61589 6.28423 9.11606 6.78406C8.61623 7.28389 8.33437 7.96113 8.332 8.668C8.33516 9.37425 8.6174 10.0506 9.11718 10.5496C9.61695 11.0487 10.2937 11.3299 11 11.332C12.465 11.332 13.668 10.132 13.668 8.668C13.6656 7.96113 13.3838 7.28389 12.8839 6.78406C12.3841 6.28423 11.7069 6.00237 11 6M21.668 23.332C21.668 26.266 16.868 28.668 11 28.668C5.133 28.668 0.332001 26.266 0.332001 23.332C0.332001 21.602 1.934 20.132 4.465 19.066L5.265 20.266C3.935 20.934 3 21.734 3 22.668C3 24.535 6.602 26 11 26C15.398 26 19 24.535 19 22.668C19 21.734 18.066 20.934 16.602 20.266L17.398 19.066C20.066 20.133 21.668 21.602 21.668 23.332Z" fill="#FF5722"></path>
  </symbol>
  <symbol xmlns="http://www.w3.org/2000/svg" xmlns:xlink="http://www.w3.org/1999/xlink" fill-rule="nonzero" viewBox="0,0,256,256" id="telegram">
    <g fill="#ffffff" fill-rule="nonzero" stroke="none" stroke-width="1" stroke-linecap="butt" stroke-linejoin="miter" stroke-miterlimit="10" stroke-dasharray="" stroke-dashoffset="0" font-family="none" font-weight="none" font-size="none" text-anchor="none">
      <g transform="scale(5.12,5.12)">
        <path d="M25,2c12.703,0 23,10.297 23,23c0,12.703 -10.297,23 -23,23c-12.703,0 -23,-10.297 -23,-23c0,-12.703 10.297,-23 23,-23zM32.934,34.375c0.423,-1.298 2.405,-14.234 2.65,-16.783c0.074,-0.772 -0.17,-1.285 -0.648,-1.514c-0.578,-0.278 -1.434,-0.139 -2.427,0.219c-1.362,0.491 -18.774,7.884 -19.78,8.312c-0.954,0.405 -1.856,0.847 -1.856,1.487c0,0.45 0.267,0.703 1.003,0.966c0.766,0.273 2.695,0.858 3.834,1.172c1.097,0.303 2.346,0.04 3.046,-0.395c0.742,-0.461 9.305,-6.191 9.92,-6.693c0.614,-0.502 1.104,0.141 0.602,0.644c-0.502,0.502 -6.38,6.207 -7.155,6.997c-0.941,0.959 -0.273,1.953 0.358,2.351c0.721,0.454 5.906,3.932 6.687,4.49c0.781,0.558 1.573,0.811 2.298,0.811c0.725,0 1.107,-0.955 1.468,-2.064z"></path>
      </g>
    </g>
  </symbol>
  <symbol xmlns="http://www.w3.org/2000/svg" xmlns:xlink="http://www.w3.org/1999/xlink" fill-rule="nonzero" viewBox="0,0,256,256" id="twitter">
    <g fill="#ffffff" fill-rule="nonzero" stroke="none" stroke-width="1" stroke-linecap="butt" stroke-linejoin="miter" stroke-miterlimit="10" stroke-dasharray="" stroke-dashoffset="0" font-family="none" font-weight="none" font-size="none" text-anchor="none">
      <g transform="scale(5.12,5.12)">
        <path d="M50.0625,10.4375c-1.84766,0.82031 -3.82812,1.37109 -5.91016,1.62109c2.125,-1.27344 3.75781,-3.28906 4.52344,-5.6875c-1.98437,1.17578 -4.19141,2.03125 -6.53125,2.49219c-1.875,-2 -4.54687,-3.24609 -7.50391,-3.24609c-5.67969,0 -10.28516,4.60156 -10.28516,10.28125c0,0.80469 0.09375,1.58984 0.26953,2.34375c-8.54687,-0.42969 -16.12109,-4.52344 -21.19531,-10.74609c-0.88672,1.52344 -1.39062,3.28906 -1.39062,5.17187c0,3.56641 1.8125,6.71484 4.57422,8.5625c-1.6875,-0.05469 -3.27344,-0.51953 -4.66016,-1.28906c0,0.04297 0,0.08594 0,0.12891c0,4.98438 3.54688,9.13672 8.24609,10.08594c-0.85937,0.23438 -1.76953,0.35938 -2.70703,0.35938c-0.66406,0 -1.30859,-0.0625 -1.9375,-0.1875c1.3125,4.08203 5.10938,7.0625 9.60547,7.14453c-3.51562,2.75781 -7.94922,4.39844 -12.76953,4.39844c-0.83203,0 -1.64844,-0.04687 -2.44922,-0.14453c4.54687,2.92188 9.95312,4.62109 15.76172,4.62109c18.91406,0 29.25781,-15.66797 29.25781,-29.25391c0,-0.44531 -0.01172,-0.89453 -0.02734,-1.33203c2.00781,-1.44922 3.75,-3.26172 5.12891,-5.32422z"></path>
      </g>
    </g>
  </symbol>
</svg>
